<svg width="18" height="12" viewBox="0 0 18 12" fill="none" xmlns="http://www.w3.org/2000/svg">
<g clip-path="url(#clip0_15_284)">
<path d="M8.98397 1C6.20177 1 3.34781 2.61028 1.10106 5.83084C1.03693 5.92378 1.00178 6.03364 1.00007 6.14655C0.998346 6.25945 1.03014 6.37033 1.09142 6.46517C2.81771 9.16742 5.63347 11.2807 8.98397 11.2807C12.2981 11.2807 15.1717 9.16099 16.9012 6.45268C16.961 6.35969 16.9928 6.25145 16.9928 6.14087C16.9928 6.03029 16.961 5.92204 16.9012 5.82906C15.1677 3.1518 12.2731 1 8.98397 1Z" stroke="white" stroke-linecap="round" stroke-linejoin="round"/>
<path d="M8.99638 8.99615C10.5735 8.99615 11.8521 7.71759 11.8521 6.14041C11.8521 4.56323 10.5735 3.28467 8.99638 3.28467C7.41919 3.28467 6.14062 4.56323 6.14062 6.14041C6.14062 7.71759 7.41919 8.99615 8.99638 8.99615Z" stroke="white" stroke-miterlimit="10"/>
</g>
<defs>
<clipPath id="clip0_15_284">
<rect width="18" height="12" fill="white"/>
</clipPath>
</defs>
</svg>
