<svg width="173" height="241" viewBox="0 0 173 241" fill="none" xmlns="http://www.w3.org/2000/svg">
<g clip-path="url(#clip0_22_19)">
<mask id="mask0_22_19" style="mask-type:luminance" maskUnits="userSpaceOnUse" x="0" y="0" width="173" height="241">
<path d="M173 0L173 241L0 241L1.46793e-05 -5.42684e-06L173 0Z" fill="white"/>
</mask>
<g mask="url(#mask0_22_19)">
<path d="M59.9555 35.1508C74.8325 31.2696 88.4588 31.1122 102.621 36.6402C114.505 41.2661 123.529 49.3853 129.918 57.672C136.604 66.3365 140.432 75.9555 141.653 85.7529C142.844 95.2775 144.021 106.197 139.345 115.355C134.356 125.121 125.704 134.351 117.141 142.722C112.822 146.95 108.384 151.145 104.602 155.635C99.613 161.583 97.1258 167.625 95.2495 174.359C93.4773 180.705 91.4372 188.792 98.4958 193.996C103.276 197.531 115.13 198.244 120.953 196.052C127.029 193.775 141.519 184.933 130.633 180.957C121.757 177.716 112.807 180.663 107.193 185.793C100.938 191.509 98.4216 199.597 98.5854 206.731C98.764 214.545 103.574 220.535 111.899 225.518C119.091 229.828 126.24 234.382 135.458 236.363C139.538 237.244 144.006 238.02 148.265 238.21C152.852 238.409 157.23 237.328 161.831 237.558C163.097 237.611 162.278 240.392 160.774 240.308C156.173 240.076 151.809 241.21 147.208 240.958C142.591 240.706 137.766 239.899 133.373 238.88C124.721 236.866 118.168 232.609 111.273 228.601C98.0939 220.933 94.4751 211.021 97.4385 199.376C99.6873 190.503 106.94 177.139 122.338 176.971C134.549 176.835 141.489 183.129 133.805 190.47C130.022 194.091 123.351 198.695 116.977 199.765C111.809 200.625 103.008 199.944 98.6597 197.73C86.2251 191.374 92.1668 176.1 95.1005 167.635C99.3893 155.247 111.839 145.586 121.683 135.254C127.059 129.61 132.152 123.4 136.039 117.169C140.596 109.848 140.447 101.812 140.015 93.9559C139.136 77.9801 133.224 62.5393 118.6 49.983C111.735 44.0878 103.515 39.3255 93.1944 36.7766C81.4149 33.8605 70.9011 34.92 59.4342 37.9095C58.1685 38.2452 58.645 35.4969 59.9555 35.1508Z" fill="white"/>
<path d="M63.8568 36.1577C59.5381 45.1473 45.6737 49.5951 33.5963 51.63C24.9143 53.0881 5.85262 55.8782 0.208562 48.7873C-0.342442 48.095 0.268131 46.8467 1.11697 46.4062C2.5615 45.6403 3.96135 45.5565 5.62924 45.1473C8.89057 44.3502 11.9583 43.0284 14.9665 41.8221C21.5934 39.1578 28.1758 36.42 34.9813 33.9549C39.6276 32.2765 44.9591 31.2172 50.201 31.238C53.7602 31.2486 61.2954 31.28 63.6484 33.5773C64.4526 34.364 62.889 36.9026 62.1146 36.1473C59.4638 33.5563 49.0246 33.8709 45.4653 34.2171C39.4788 34.815 34.5048 36.8396 29.2629 38.8012C23.7677 40.8572 18.4363 43.0599 13.0157 45.1893C11.1244 45.934 9.2182 46.8152 7.20779 47.3921C5.22715 47.969 2.96357 48.0424 1.20632 48.9761C1.50416 48.1788 1.8169 47.3817 2.11473 46.595C6.80569 52.4902 23.9761 50.4026 30.9903 49.3643C36.4108 48.5566 41.8614 47.6019 46.8651 45.9026C52.3602 44.0459 59.821 40.1018 61.8912 35.7905C62.6656 34.1857 64.6462 34.5108 63.8568 36.1577Z" fill="white"/>
<path d="M65.4651 35.2031C65.5989 27.2205 62.2035 17.035 53.8789 11.2133C45.9118 5.63276 31.6006 2.01384 20.2976 2.90546C20.6997 2.07677 21.0869 1.24808 21.489 0.419395C22.5761 2.43341 25.0333 4.0698 26.7162 5.85306C28.3541 7.58384 29.5157 9.46148 30.99 11.2552C34.028 14.9791 38.8084 18.6714 43.4694 21.4407C47.7883 24.0106 53.2981 27.0631 58.3614 28.8253C59.5826 29.2555 67.535 32.0248 68.369 31.3115C69.7985 30.1052 69.8283 32.8325 69.0093 33.5248C67.1775 35.0773 62.2931 33.0633 60.3122 32.4968C55.0854 30.9863 51.3175 28.6471 46.7608 26.3288C40.6549 23.2345 35.1003 19.7623 30.7221 15.3672C29.0542 13.6888 27.9969 11.7797 26.5373 10.0174C24.4376 7.47895 21.072 5.33905 19.5828 2.61175C19.2552 2.00334 19.5084 0.230582 20.7742 0.125687C33.0004 -0.839365 48.6223 3.07329 56.7533 9.6608C64.5416 15.9546 67.7881 25.9826 67.6541 34.1122C67.6691 35.1611 65.4351 37.0599 65.4651 35.2031Z" fill="white"/>
<path d="M65.5251 32.5386C65.6441 32.5596 65.7635 32.5806 65.8825 32.6015C67.193 32.8322 66.1654 34.668 65.6739 35.0876C63.068 37.3429 57.7365 38.3079 54.1475 39.6295C49.6353 41.2869 45.5103 42.1367 40.4172 42.3778C38.8238 42.4512 39.5982 39.6715 40.9087 39.6191C45.8082 39.3883 49.6503 38.6646 54.0732 37.0596C57.0962 35.9583 62.8296 34.7834 65.0486 32.8742C64.974 33.7029 64.9145 34.5316 64.8399 35.3604C64.7209 35.3394 64.6018 35.3184 64.4828 35.2974C63.1125 35.0666 64.1401 32.2973 65.5251 32.5386Z" fill="white"/>
<path d="M66.6272 32.9162C66.5824 32.9688 66.5229 33.0212 66.4784 33.0736C66.1507 33.4198 65.7187 33.7449 65.1231 33.5037C61.4001 31.9303 58.3026 29.9477 55.8455 27.4198C54.5648 26.0979 53.4329 24.6925 52.5097 23.2238C51.3778 21.4196 51.0353 19.3006 49.3972 17.6853C48.593 16.8881 50.1716 14.3601 50.931 15.1153C53.4777 17.6433 54.0733 20.8951 56.307 23.6014C58.8684 26.7065 62.2936 29.098 66.657 30.9338C66.2102 31.0806 65.7635 31.217 65.3017 31.3638C65.3465 31.3114 65.406 31.259 65.4508 31.2064C66.9251 29.6436 67.4612 32.0351 66.6272 32.9162Z" fill="white"/>
<path d="M119.18 45.8607C125.629 40.322 130.096 33.7031 128.399 26.3079C127.207 21.1574 124.005 14.6119 119.374 10.4161C119.985 9.92305 120.61 9.43004 121.221 8.94753C120.774 11.2553 120.953 13.2063 119.91 15.4092C118.347 18.6715 115.889 21.682 114.519 25.0072C111.332 32.738 114.37 39.0844 119.404 45.8711C119.999 46.6684 118.347 49.2069 117.513 48.074C113.015 41.9901 110.186 36.7662 111.109 29.7485C111.451 27.0946 112.524 24.5561 113.819 22.0595C116.068 17.6959 118.168 13.993 119.076 9.32515C119.136 9.04194 120.104 7.10136 120.923 7.8566C134.489 20.1609 133.402 36.4304 119.836 48.074C118.406 49.2907 118.362 46.553 119.18 45.8607Z" fill="white"/>
<path d="M118.391 47.5073C118.54 44.6436 119.702 41.9059 119.91 39.0422C120.178 35.182 120.014 31.4792 118.972 27.6924C118.734 26.8112 120.67 24.4405 121.101 26.0035C122.069 29.507 122.278 32.6749 122.204 36.2625C122.144 39.7135 120.789 43.0178 120.61 46.4374C120.565 47.4549 118.287 49.3535 118.391 47.5073Z" fill="white"/>
<path d="M130.9 66.2419C126.075 67.8364 122.084 70.1231 116.902 71.2246C112.271 72.2105 107.282 72.6827 102.472 72.8505C94.2513 73.1336 85.8672 71.3504 77.8402 70.2699C76.3214 70.0602 77.7212 67.763 78.6146 67.5112C89.724 64.3329 99.6273 57.2943 112.151 57.0845C119.642 56.9587 123.961 58.1754 130.528 60.4517C133.119 61.3433 135.294 61.721 135.457 63.9552C135.532 65.0043 133.358 66.8923 133.238 65.0253C133.149 63.7978 124.631 61.2489 123.022 60.7873C117.929 59.3189 110.379 59.4342 105.197 60.6195C95.4872 62.8433 87.5649 67.5742 78.1381 70.2699C78.3913 69.3468 78.6594 68.4239 78.9126 67.5112C87.4903 68.6651 96.4107 70.5007 105.182 69.9764C109.665 69.714 114.266 69.2314 118.525 68.2035C123.32 67.0497 126.969 64.9517 131.422 63.4832C132.553 63.0951 132.151 65.8224 130.9 66.2419Z" fill="white"/>
<path d="M132.732 64.3749C123.469 64.3645 114.594 65.0463 105.495 66.2421C104.005 66.4415 104.646 63.6512 105.986 63.4834C115.279 62.2665 124.333 61.6058 133.789 61.6162C134.996 61.6162 134.251 64.3749 132.732 64.3749Z" fill="white"/>
<path d="M141.191 90.6936C148.265 93.1167 156.56 89.9593 161.533 86.2775C165.286 83.4977 167.058 80.4767 168.786 76.8788C169.426 75.5256 171.526 72.1899 169.62 72.0325C168.384 71.9276 163.722 74.2983 162.561 74.7179C159.821 75.683 157.274 76.7004 154.773 77.9591C147.728 81.5257 140.655 84.704 140.714 91.5327C140.729 92.5712 138.51 94.47 138.496 92.6028C138.436 86.739 141.414 82.3859 148.175 78.8194C155.502 74.9592 163.633 70.8473 172.047 68.3297C172.494 68.1933 172.822 68.6339 172.866 68.8647C173.804 74.4977 169.59 81.7459 164.854 86.2041C159.568 91.1761 149.292 96.5678 140.148 93.4419C138.793 92.9909 140.044 90.295 141.191 90.6936Z" fill="white"/>
<path d="M139.032 90.4102C142.621 89.1094 145.688 87.2632 149.129 85.7841C150.677 85.1234 152.286 84.5675 153.671 83.7283C154.996 82.931 155.979 82.0185 157.557 81.452C159.225 80.8646 158.793 83.6129 157.647 84.0219C156.143 84.5569 155.19 85.4906 153.924 86.2353C152.479 87.085 150.811 87.6619 149.218 88.3437C145.778 89.8227 142.71 91.6585 139.121 92.9696C137.468 93.5885 137.885 90.8298 139.032 90.4102Z" fill="white"/>
</g>
</g>
<defs>
<clipPath id="clip0_22_19">
<rect width="173" height="241" fill="white"/>
</clipPath>
</defs>
</svg>
