<svg width="260" height="132" viewBox="0 0 260 132" fill="none" xmlns="http://www.w3.org/2000/svg">
<g clip-path="url(#clip0_303_367)">
<path d="M222.078 86.2539C226.265 74.9026 226.435 64.5058 220.471 53.6999C215.48 44.6325 206.721 37.7467 197.781 32.8722C188.434 27.7703 178.056 24.8501 167.486 23.9184C157.211 23.0094 145.43 22.1117 135.551 25.6796C125.015 29.4861 115.056 36.0878 106.026 42.6213C101.465 45.9165 96.9384 49.3026 92.0949 52.1887C85.6783 55.9952 79.1599 57.8927 71.8947 59.3244C65.0481 60.6766 56.3229 62.2333 50.7099 56.8474C46.8962 53.2 46.1266 44.1553 48.4918 39.7125C50.9475 35.0765 60.4875 24.0207 64.7765 32.3268C68.2733 39.0989 65.0933 45.9279 59.5595 50.2116C53.3919 54.9839 44.6668 56.9042 36.9715 56.7792C28.5406 56.6428 22.0788 52.9727 16.7034 46.621C12.0522 41.1328 7.14079 35.6787 5.00194 28.6453C4.05134 25.5319 3.21391 22.1231 3.01021 18.8734C2.7952 15.3737 3.96081 12.033 3.71184 8.52199C3.65526 7.55616 0.656349 8.18111 0.746882 9.32874C0.995849 12.8398 -0.22635 16.1691 0.04525 19.6801C0.31685 23.2025 1.18823 26.884 2.28595 30.236C4.45874 36.8377 9.0533 41.8373 13.3763 47.0982C21.6487 57.1542 32.343 59.9153 44.9044 57.6541C54.4783 55.9384 68.8957 50.4047 69.0768 38.6558C69.2239 29.3384 62.4339 24.0434 54.5123 29.9065C50.608 32.7926 45.64 37.8831 44.4857 42.7463C43.5578 46.6892 44.2933 53.4045 46.6812 56.7224C53.539 66.2102 70.0161 61.6765 79.1486 59.4381C92.5136 56.1656 102.936 46.6664 114.083 39.1557C120.171 35.0538 126.871 31.1678 133.593 28.2021C141.492 24.7251 150.161 24.8388 158.637 25.1683C175.872 25.8387 192.53 30.3497 206.076 41.5078C212.436 46.746 217.574 53.0182 220.324 60.8925C223.47 69.8803 222.327 77.9024 219.102 86.6516C218.739 87.6175 221.704 87.2539 222.078 86.2539Z" fill="#D2CBB8"/>
<path d="M220.991 83.2769C211.293 86.5721 206.495 97.1507 204.299 106.366C202.726 112.99 199.716 127.534 207.366 131.841C208.113 132.261 209.46 131.795 209.935 131.148C210.761 130.046 210.852 128.977 211.293 127.705C212.153 125.216 213.579 122.876 214.88 120.58C217.755 115.524 220.709 110.502 223.368 105.309C225.179 101.764 226.322 97.6961 226.299 93.6964C226.288 90.9808 226.254 85.2313 223.775 83.436C222.927 82.8224 220.188 84.0155 221.003 84.6063C223.798 86.6289 223.459 94.5941 223.085 97.3098C222.44 101.878 220.256 105.673 218.14 109.672C215.922 113.865 213.545 117.933 211.248 122.069C210.444 123.512 209.494 124.966 208.871 126.5C208.249 128.012 208.17 129.739 207.163 131.08C208.023 130.852 208.883 130.614 209.731 130.386C203.371 126.807 205.623 113.706 206.744 108.354C207.615 104.218 208.645 100.06 210.478 96.2417C212.481 92.0488 216.736 86.3562 221.388 84.7768C223.119 84.1859 222.768 82.6747 220.991 83.2769Z" fill="#D2CBB8"/>
<path d="M222.021 82.0496C230.633 81.9474 241.622 84.5381 247.903 90.8898C253.923 96.9688 257.827 107.888 256.865 116.513C257.759 116.206 258.653 115.91 259.547 115.604C257.375 114.774 255.609 112.899 253.685 111.615C251.818 110.365 249.792 109.479 247.857 108.354C243.84 106.036 239.856 102.389 236.869 98.8323C234.096 95.5371 230.803 91.3329 228.902 87.4696C228.438 86.5379 225.45 80.4702 226.22 79.8339C227.521 78.7431 224.579 78.7204 223.832 79.3453C222.157 80.7429 224.33 84.4699 224.941 85.9811C226.571 89.9694 229.094 92.8442 231.595 96.3211C234.934 100.98 238.679 105.218 243.421 108.559C245.232 109.831 247.291 110.638 249.193 111.752C251.931 113.354 254.24 115.922 257.182 117.058C257.839 117.308 259.751 117.115 259.864 116.149C260.905 106.82 256.684 94.9008 249.577 88.6968C242.787 82.7541 231.969 80.2771 223.198 80.3793C222.067 80.368 220.018 82.0724 222.021 82.0496Z" fill="#D2CBB8"/>
<path d="M224.896 82.0043C224.873 81.9133 224.85 81.8224 224.828 81.7315C224.579 80.7316 222.598 81.5157 222.146 81.8906C219.713 83.8791 218.672 87.9469 217.246 90.6853C215.458 94.1282 214.541 97.2757 214.281 101.162C214.202 102.377 217.2 101.787 217.257 100.787C217.506 97.0484 218.287 94.1168 220.018 90.7421C221.206 88.4355 222.474 84.0609 224.534 82.3679C223.64 82.4247 222.746 82.4701 221.852 82.5269C221.874 82.6178 221.897 82.7087 221.919 82.7996C222.168 83.845 225.156 83.061 224.896 82.0043Z" fill="#D2CBB8"/>
<path d="M224.488 81.1634C224.432 81.1975 224.375 81.243 224.319 81.2771C223.945 81.527 223.594 81.8566 223.855 82.3111C225.552 85.1517 227.691 87.5152 230.418 89.39C231.844 90.3672 233.361 91.2308 234.945 91.9352C236.891 92.7988 239.177 93.0601 240.92 94.31C241.78 94.9236 244.507 93.7192 243.693 93.1397C240.965 91.1967 237.457 90.7422 234.538 89.0378C231.188 87.0834 228.608 84.47 226.627 81.1407C226.469 81.4816 226.322 81.8225 226.163 82.1747C226.22 82.1406 226.276 82.0952 226.333 82.0611C228.019 80.9362 225.439 80.5271 224.488 81.1634Z" fill="#D2CBB8"/>
<path d="M210.524 41.0646C216.499 36.1445 223.64 32.7358 231.618 34.0311C237.174 34.9401 244.236 37.3831 248.763 40.9169C249.294 40.451 249.826 39.9738 250.347 39.5079C247.857 39.8488 245.752 39.7124 243.376 40.5078C239.856 41.7009 236.609 43.5757 233.021 44.6211C224.681 47.0527 217.834 44.7347 210.512 40.8941C209.652 40.4396 206.914 41.7009 208.136 42.3372C214.699 45.7687 220.335 47.9276 227.906 47.2231C230.769 46.9618 233.508 46.1437 236.201 45.1551C240.909 43.4394 244.904 41.8372 249.94 41.1441C250.245 41.0987 252.339 40.3601 251.524 39.7352C238.249 29.3838 220.697 30.2132 208.136 40.5646C206.823 41.6554 209.777 41.6895 210.524 41.0646Z" fill="#D2CBB8"/>
<path d="M208.747 41.6668C211.836 41.5531 214.79 40.6669 217.879 40.5078C222.044 40.3033 226.039 40.4282 230.124 41.2236C231.075 41.4054 233.632 39.9283 231.946 39.5988C228.166 38.8602 224.749 38.7011 220.878 38.7579C217.155 38.8034 213.59 39.8374 209.901 39.9737C208.803 40.0078 206.755 41.7463 208.747 41.6668Z" fill="#D2CBB8"/>
<path d="M188.535 32.1222C186.815 35.8037 184.348 38.8489 183.16 42.8031C182.096 46.3369 181.587 50.1434 181.406 53.8135C181.1 60.0857 183.024 66.4829 184.19 72.6074C184.416 73.7663 186.894 72.6983 187.166 72.0165C190.595 63.54 198.188 55.9838 198.415 46.4278C198.551 40.7124 197.238 37.4172 194.782 32.4063C193.82 30.4292 193.413 28.7702 191.002 28.6452C189.871 28.5884 187.834 30.2474 189.848 30.3383C191.172 30.4064 193.922 36.9059 194.42 38.133C196.004 42.0191 195.88 47.7799 194.601 51.7341C192.202 59.1426 187.098 65.1875 184.19 72.3801C185.186 72.1869 186.181 71.9824 187.166 71.7892C185.921 65.2444 183.941 58.4381 184.507 51.7455C184.79 48.3254 185.31 44.8143 186.419 41.5646C187.664 37.9058 189.927 35.1219 191.512 31.7245C191.93 30.8609 188.988 31.1677 188.535 32.1222Z" fill="#D2CBB8"/>
<path d="M190.55 30.7245C190.561 37.7921 189.825 44.5642 188.535 51.5068C188.32 52.6431 191.331 52.1545 191.512 51.1319C192.824 44.0416 193.537 37.1331 193.526 29.9178C193.526 28.9974 190.55 29.5655 190.55 30.7245Z" fill="#D2CBB8"/>
<path d="M162.156 24.2706C159.542 18.8733 162.948 12.5443 166.921 8.74917C169.919 5.88578 173.179 4.53363 177.06 3.21556C178.52 2.72696 182.119 1.12483 182.289 2.57925C182.402 3.52235 179.844 7.07886 179.392 7.96515C178.35 10.0559 177.253 11.9989 175.895 13.9078C172.047 19.2824 168.618 24.6796 161.251 24.6342C160.131 24.6228 158.082 26.3158 160.097 26.3272C166.423 26.3727 171.119 24.1001 174.967 18.9415C179.131 13.351 183.567 7.14704 186.283 0.727135C186.43 0.386255 185.955 0.136277 185.706 0.102189C179.629 -0.613659 171.809 2.60197 167 6.2153C161.636 10.249 155.819 18.0893 159.191 25.0659C159.678 26.1 162.586 25.1455 162.156 24.2706Z" fill="#D2CBB8"/>
<path d="M162.462 25.9182C163.865 23.1798 165.857 20.8391 167.452 18.2143C168.165 17.0326 168.765 15.8054 169.671 14.7487C170.531 13.7374 171.515 12.9875 172.126 11.783C172.76 10.5104 169.795 10.8399 169.354 11.7149C168.776 12.8625 167.769 13.5897 166.966 14.5555C166.049 15.6577 165.427 16.9303 164.691 18.1461C163.096 20.7709 161.115 23.1116 159.701 25.85C159.033 27.1113 162.009 26.7931 162.462 25.9182Z" fill="#D2CBB8"/>
</g>
<defs>
<clipPath id="clip0_303_367">
<rect width="260" height="132" fill="white"/>
</clipPath>
</defs>
</svg>
