<svg width="30" height="30" viewBox="0 0 30 30" fill="none" xmlns="http://www.w3.org/2000/svg">
<path d="M17.65 19.2501L23.3875 13.5126C23.6203 13.2784 23.751 12.9616 23.751 12.6314C23.751 12.3011 23.6203 11.9843 23.3875 11.7501C23.2713 11.633 23.133 11.54 22.9807 11.4765C22.8284 11.413 22.665 11.3804 22.5 11.3804C22.335 11.3804 22.1716 11.413 22.0193 11.4765C21.8669 11.54 21.7287 11.633 21.6125 11.7501L15.8875 17.5001C15.7713 17.6173 15.633 17.7103 15.4807 17.7737C15.3284 17.8372 15.165 17.8699 15 17.8699C14.835 17.8699 14.6716 17.8372 14.5193 17.7737C14.3669 17.7103 14.2287 17.6173 14.1125 17.5001L8.38748 11.7501C8.15376 11.5147 7.83611 11.3818 7.50441 11.3807C7.1727 11.3795 6.85412 11.5101 6.61874 11.7439C6.38336 11.9776 6.25046 12.2952 6.24929 12.6269C6.24812 12.9587 6.37877 13.2772 6.61249 13.5126L12.35 19.2501C13.0531 19.9524 14.0062 20.3468 15 20.3468C15.9937 20.3468 16.9469 19.9524 17.65 19.2501Z" fill="white"/>
</svg>
