<svg width="30" height="30" viewBox="0 0 30 30" fill="none" xmlns="http://www.w3.org/2000/svg">
<g clip-path="url(#clip0_58_394)">
<path d="M8.63547 14.0051C8.73166 13.8946 8.84701 13.8057 8.97496 13.7435C9.10291 13.6813 9.24095 13.6469 9.3812 13.6423C9.52145 13.6378 9.66115 13.6631 9.79233 13.7169C9.9235 13.7708 10.0436 13.852 10.1457 13.956C15.0617 18.9624 19.9945 22.0083 25.7991 23.561C26.5822 21.2511 26.6517 18.709 25.9753 16.229C25.078 12.9383 22.9882 10.0713 19.9337 7.93841C17.207 6.03432 14.4815 5.53845 11.8449 5.05917C8.51864 4.45431 5.37661 3.88266 2.37814 0.450531C2.0443 0.0708689 1.58963 -0.0814293 1.15498 0.0419972C0.658243 0.186356 0.325079 0.61077 0.165508 1.31235C-0.208384 2.95443 0.0319754 7.55658 1.08354 12.415C2.77207 20.2204 5.46676 24.1701 7.43035 26.1096C9.96746 28.6134 13.2803 30 16.5727 30C17.1933 30.0011 17.813 29.9519 18.4268 29.8527C21.2116 29.3966 23.5297 27.8844 24.8363 25.6843C18.8614 24.004 13.7571 20.8088 8.67888 15.6399C8.57656 15.5358 8.49425 15.4109 8.43668 15.2723C8.37909 15.1337 8.34738 14.9841 8.34335 14.8322C8.33932 14.6804 8.36305 14.5291 8.41317 14.3872C8.4633 14.2452 8.53885 14.1154 8.63547 14.0051ZM29.0713 24.2682C27.9476 24.0813 26.8594 23.8467 25.7997 23.563C25.5819 24.2059 25.3109 24.8264 24.9899 25.4166C24.9411 25.5069 24.889 25.5963 24.8363 25.6843C26.125 26.0451 27.4307 26.3341 28.7468 26.5506C28.8869 26.5771 29.0303 26.5732 29.169 26.539C29.3076 26.505 29.4386 26.4412 29.5542 26.3517C29.6697 26.2622 29.7676 26.1484 29.842 26.0175C29.9164 25.8865 29.966 25.7409 29.9876 25.5889C30.0093 25.437 30.0026 25.2819 29.968 25.1328C29.9335 24.9837 29.8718 24.8435 29.7866 24.7205C29.7013 24.5975 29.5942 24.4941 29.4715 24.4164C29.3487 24.3388 29.2123 24.2885 29.0713 24.2682Z" fill="#405244"/>
</g>
<defs>
<clipPath id="clip0_58_394">
<rect width="30" height="30" fill="white"/>
</clipPath>
</defs>
</svg>
