<svg width="30" height="30" viewBox="0 0 30 30" fill="none" xmlns="http://www.w3.org/2000/svg">
<path d="M13.8592 15.6385C13.742 15.5223 13.649 15.384 13.5856 15.2317C13.5221 15.0794 13.4895 14.916 13.4895 14.751C13.4895 14.586 13.5221 14.4226 13.5856 14.2703C13.649 14.1179 13.742 13.9797 13.8592 13.8635L19.5967 8.13849C19.7139 8.02229 19.8069 7.88404 19.8703 7.73171C19.9338 7.57939 19.9664 7.41601 19.9664 7.25099C19.9664 7.08598 19.9338 6.92259 19.8703 6.77027C19.8069 6.61795 19.7139 6.47969 19.5967 6.36349C19.3625 6.13068 19.0457 6 18.7155 6C18.3852 6 18.0684 6.13068 17.8342 6.36349L12.0967 12.101C11.3944 12.8041 11 13.7572 11 14.751C11 15.7447 11.3944 16.6979 12.0967 17.401L17.8342 23.1385C18.067 23.3694 18.3813 23.4996 18.7092 23.501C18.8737 23.5019 19.0368 23.4704 19.1891 23.4082C19.3414 23.346 19.4799 23.2543 19.5967 23.1385C19.7139 23.0223 19.8069 22.884 19.8703 22.7317C19.9338 22.5794 19.9664 22.416 19.9664 22.251C19.9664 22.086 19.9338 21.9226 19.8703 21.7703C19.8069 21.6179 19.7139 21.4797 19.5967 21.3635L13.8592 15.6385Z" fill="black"/>
</svg>
