<svg width="252" height="108" viewBox="0 0 252 108" fill="none" xmlns="http://www.w3.org/2000/svg">
<g clip-path="url(#clip0_58_445)">
<mask id="mask0_58_445" style="mask-type:luminance" maskUnits="userSpaceOnUse" x="0" y="0" width="252" height="108">
<path d="M0 108H252V0H0V108Z" fill="white"/>
</mask>
<g mask="url(#mask0_58_445)">
<path d="M36.7552 37.4286C32.6971 46.7161 32.5323 55.2225 38.3128 64.0637C43.1502 71.4825 51.6397 77.1164 60.3046 81.1046C69.364 85.2789 79.4227 87.6681 89.6675 88.4304C99.6263 89.1741 111.045 89.9086 120.62 86.9894C130.832 83.875 140.484 78.4736 149.236 73.128C153.657 70.432 158.044 67.6615 162.739 65.3002C168.958 62.1858 175.276 60.6333 182.318 59.4619C188.953 58.3555 197.41 57.0819 202.85 61.4885C206.547 64.4727 207.293 71.8729 205 75.508C202.62 79.3011 193.374 88.3467 189.217 81.5508C185.827 76.01 188.91 70.4226 194.273 66.9178C200.251 63.0132 208.708 61.442 216.166 61.5443C224.338 61.6559 230.601 64.6587 235.811 69.8556C240.319 74.3459 245.079 78.8083 247.152 84.563C248.073 87.1103 248.885 89.8993 249.082 92.5581C249.291 95.4215 248.161 98.1548 248.402 101.027C248.457 101.818 251.364 101.306 251.276 100.367C251.035 97.4947 252.219 94.7707 251.956 91.8981C251.693 89.0161 250.848 86.004 249.784 83.2615C247.679 77.8601 243.225 73.7695 239.035 69.4651C231.017 61.2375 220.652 58.9784 208.477 60.8285C199.198 62.2322 185.224 66.7598 185.049 76.3725C184.906 83.9959 191.487 88.3281 199.165 83.5311C202.949 81.1697 207.764 77.0047 208.883 73.0258C209.783 69.7998 209.07 64.3054 206.755 61.5908C200.108 53.828 184.138 57.5374 175.287 59.3688C162.333 62.0463 152.231 69.8184 141.427 75.9635C135.527 79.3196 129.033 82.4991 122.518 84.9256C114.862 87.7704 106.459 87.6774 98.2442 87.4078C81.5395 86.8593 65.3941 83.1684 52.2649 74.0391C46.1006 69.7533 41.1207 64.6215 38.4553 58.1789C35.4061 50.8252 36.5139 44.2617 39.6397 37.1032C39.9915 36.313 37.1177 36.6105 36.7552 37.4286Z" fill="#D2CBB8"/>
<path d="M37.8087 39.8642C47.2083 37.1681 51.8587 28.5129 53.9871 20.9731C55.5117 15.5534 58.4291 3.65379 51.0145 0.129887C50.2905 -0.213753 48.9849 0.16753 48.5245 0.696892C47.7239 1.59853 47.6357 2.47316 47.2083 3.51389C46.3748 5.55034 44.9926 7.46489 43.7317 9.34343C40.9451 13.4802 38.082 17.5891 35.5048 21.8379C33.7496 24.7383 32.6417 28.0666 32.664 31.3391C32.6747 33.561 32.7076 38.2651 35.1104 39.734C35.9323 40.236 38.587 39.2598 37.7971 38.7765C35.0881 37.1216 35.4166 30.6046 35.7791 28.3827C36.4043 24.6451 38.5211 21.5401 40.572 18.2682C42.7217 14.8375 45.0256 11.5092 47.2519 8.12516C48.0312 6.94453 48.9519 5.75489 49.5558 4.4998C50.1586 3.26271 50.2352 1.8497 51.2112 0.752522C50.3777 0.939068 49.5441 1.1338 48.7222 1.32034C54.8865 4.24862 52.7038 14.9676 51.6173 19.3465C50.7731 22.7305 49.7748 26.1325 47.9982 29.2566C46.0569 32.6871 41.9328 37.3447 37.4239 38.637C35.7462 39.1204 36.0864 40.3569 37.8087 39.8642Z" fill="#D2CBB8"/>
<path d="M36.8104 40.8685C28.4634 40.9521 17.8125 38.8324 11.7248 33.6356C5.89002 28.6618 2.10615 19.728 3.03855 12.6711C2.17206 12.9223 1.30556 13.1645 0.439068 13.4149C2.54424 14.094 4.2559 15.628 6.1207 16.6786C7.93025 17.7013 9.89392 18.4262 11.7694 19.3467C15.6628 21.2432 19.5242 24.2271 22.4193 27.1372C25.107 29.8332 28.2986 33.273 30.1411 36.4339C30.5909 37.1962 33.4869 42.1607 32.7406 42.6813C31.4796 43.5738 34.3311 43.5924 35.0551 43.0811C36.6786 41.9376 34.5725 38.8882 33.9803 37.6518C32.4004 34.3886 29.955 32.0365 27.531 29.1918C24.2947 25.38 20.665 21.9125 16.0689 19.179C14.3136 18.1382 12.318 17.478 10.4745 16.5665C7.82073 15.2558 5.58276 13.1547 2.73129 12.2252C2.09451 12.0207 0.241329 12.1786 0.131805 12.969C-0.877163 20.6018 3.21398 30.3538 10.1023 35.4298C16.6834 40.2921 27.1685 42.3187 35.6696 42.2351C36.7658 42.2443 38.7518 40.8498 36.8104 40.8685Z" fill="#D2CBB8"/>
<path d="M34.0241 40.9054C34.0464 40.9798 34.0687 41.0542 34.09 41.1286C34.3313 41.9467 36.2514 41.3051 36.6895 40.9984C39.0476 39.3714 40.0566 36.0432 41.4387 33.8027C43.1717 30.9858 44.0605 28.4106 44.3125 25.2309C44.389 24.2368 41.4833 24.7195 41.428 25.5377C41.1867 28.5965 40.4297 30.9951 38.752 33.7562C37.6006 35.6435 36.3716 39.2227 34.375 40.6079C35.2415 40.5614 36.1079 40.5242 36.9744 40.4778C36.9531 40.4034 36.9308 40.329 36.9095 40.2547C36.6682 39.3993 33.7721 40.0408 34.0241 40.9054Z" fill="#D2CBB8"/>
<path d="M34.4195 41.5935C34.4738 41.5656 34.5291 41.5284 34.5833 41.5005C34.9458 41.296 35.286 41.0263 35.0331 40.6545C33.3883 38.3303 31.3151 36.3966 28.672 34.8626C27.2899 34.0631 25.8196 33.3565 24.2843 32.7802C22.3982 32.0736 20.1825 31.8598 18.4931 30.8372C17.6596 30.3351 15.0165 31.3206 15.8055 31.7947C18.4495 33.3844 21.8496 33.7563 24.6788 35.1508C27.9257 36.7498 30.4263 38.8881 32.3464 41.6121C32.4995 41.3331 32.642 41.0542 32.7961 40.7661C32.7408 40.794 32.6866 40.8311 32.6313 40.859C30.9972 41.7794 33.4978 42.1141 34.4195 41.5935Z" fill="#D2CBB8"/>
<path d="M47.954 74.4016C42.1628 78.4272 35.2415 81.2161 27.509 80.1563C22.124 79.4126 15.2793 77.4138 10.8915 74.5225C10.3769 74.9037 9.86126 75.2941 9.35629 75.6753C11.7697 75.3964 13.8099 75.508 16.1128 74.8572C19.5245 73.881 22.6716 72.3471 26.1492 71.4918C34.2326 69.5023 40.8689 71.3988 47.9656 74.5411C48.7991 74.913 51.4529 73.881 50.2685 73.3604C43.9074 70.5528 38.4448 68.7865 31.1068 69.3629C28.3319 69.5767 25.6772 70.246 23.067 71.0549C18.5039 72.4586 14.6318 73.7695 9.75076 74.3366C9.45514 74.3737 7.42558 74.978 8.2155 75.4893C21.082 83.9587 38.094 83.2801 50.2685 74.8107C51.5411 73.9183 48.678 73.8904 47.954 74.4016Z" fill="#D2CBB8"/>
<path d="M49.6762 73.9088C46.6823 74.0018 43.8192 74.7269 40.8252 74.857C36.7884 75.0244 32.9163 74.9222 28.957 74.2714C28.0353 74.1226 25.5569 75.3312 27.191 75.6008C30.8547 76.2051 34.1666 76.3353 37.9185 76.2888C41.5269 76.2516 44.9822 75.4055 48.5577 75.294C49.622 75.2661 51.6069 73.8437 49.6762 73.9088Z" fill="#D2CBB8"/>
<path d="M69.2663 81.718C70.9334 78.7058 73.3245 76.2143 74.476 72.9791C75.5072 70.0878 76.0006 66.9734 76.176 63.9706C76.4726 58.8388 74.6078 53.6047 73.4777 48.5937C73.2586 47.6455 70.8569 48.5194 70.5932 49.0772C67.2697 56.0125 59.9104 62.1949 59.6904 70.0134C59.5585 74.6896 60.8311 77.3857 63.2116 81.4855C64.144 83.1032 64.5384 84.4605 66.8753 84.5628C67.9715 84.6093 69.9458 83.2519 67.9937 83.1775C66.7105 83.1218 64.0451 77.804 63.5624 76.8001C62.0272 73.6205 62.1474 68.9071 63.387 65.6719C65.7122 59.6104 70.6591 54.6646 73.4777 48.7797C72.5123 48.9378 71.5479 49.1051 70.5932 49.2632C71.7999 54.618 73.719 60.1868 73.1704 65.6626C72.8961 68.4608 72.3921 71.3335 71.3172 73.9924C70.1105 76.9859 67.9172 79.2637 66.381 82.0434C65.9758 82.75 68.8273 82.4989 69.2663 81.718Z" fill="#D2CBB8"/>
<path d="M67.3132 82.8618C67.3026 77.0792 68.0159 71.5384 69.2662 65.8581C69.4746 64.9284 66.5563 65.3281 66.3808 66.1648C65.1092 71.9659 64.4181 77.6184 64.4288 83.5218C64.4288 84.2748 67.3132 83.81 67.3132 82.8618Z" fill="#D2CBB8"/>
<path d="M94.8339 88.1421C97.3674 92.558 94.0662 97.7363 90.2155 100.841C87.3097 103.184 84.1501 104.291 80.3885 105.369C78.9734 105.769 75.4851 107.08 75.3204 105.89C75.2108 105.118 77.6901 102.208 78.1282 101.483C79.1382 99.7723 80.2014 98.1826 81.5176 96.6207C85.2472 92.2233 88.5707 87.8074 95.711 87.8446C96.7966 87.8539 98.7825 86.4687 96.8295 86.4594C90.6982 86.4222 86.1467 88.2816 82.4171 92.5022C78.3812 97.0763 74.0817 102.152 71.4492 107.405C71.3068 107.684 71.7672 107.888 72.0085 107.916C77.8985 108.502 85.4779 105.871 90.1389 102.915C95.3379 99.6143 100.976 93.1995 97.7077 87.4914C97.2356 86.6453 94.4171 87.4262 94.8339 88.1421Z" fill="#D2CBB8"/>
<path d="M94.5368 86.794C93.177 89.0345 91.2463 90.9496 89.7004 93.0972C89.0093 94.064 88.4278 95.0681 87.5496 95.9327C86.7161 96.7601 85.7624 97.3736 85.1702 98.3591C84.5557 99.4004 87.4295 99.1308 87.8569 98.4149C88.4171 97.4759 89.3931 96.8809 90.1714 96.0907C91.0602 95.1889 91.6631 94.1477 92.3764 93.153C93.9223 91.0054 95.8424 89.0903 97.2129 86.8498C97.8603 85.8178 94.9759 86.0781 94.5368 86.794Z" fill="#D2CBB8"/>
</g>
</g>
<defs>
<clipPath id="clip0_58_445">
<rect width="252" height="108" fill="white" transform="matrix(-1 0 0 -1 252 108)"/>
</clipPath>
</defs>
</svg>
