<svg width="101" height="208" viewBox="0 0 101 208" fill="none" xmlns="http://www.w3.org/2000/svg">
<g clip-path="url(#clip0_28_226)">
<mask id="mask0_28_226" style="mask-type:luminance" maskUnits="userSpaceOnUse" x="0" y="0" width="101" height="208">
<path d="M-1.12777e-05 0.0266847L0.0551758 207.415L100.119 207.388L100.064 5.70985e-05L-1.12777e-05 0.0266847Z" fill="white"/>
</mask>
<g mask="url(#mask0_28_226)">
<path d="M65.3937 30.2579C56.7878 26.9204 48.9064 26.7869 40.7161 31.5463C33.8435 35.5291 28.6255 42.5171 24.9322 49.649C21.0666 57.1056 18.8552 65.3842 18.1511 73.8155C17.4642 82.0115 16.7862 91.4087 19.493 99.288C22.3808 107.691 27.3874 115.634 32.3421 122.835C34.841 126.472 37.4089 130.082 39.5977 133.945C42.4847 139.063 43.9245 144.262 45.0113 150.056C46.0378 155.517 47.2198 162.477 43.1381 166.955C40.374 169.998 33.5177 170.613 30.1493 168.728C26.6344 166.77 18.2514 159.162 24.547 155.74C29.6799 152.949 34.8574 155.484 38.1059 159.897C41.7249 164.816 43.1825 171.775 43.0893 177.913C42.9877 184.638 40.2069 189.793 35.3931 194.082C31.2337 197.793 27.1002 201.712 21.7689 203.419C19.4089 204.178 16.825 204.847 14.3616 205.01C11.7087 205.182 9.17595 204.253 6.51444 204.452C5.78229 204.498 6.25668 206.89 7.12664 206.817C9.78819 206.618 12.3123 207.592 14.9738 207.375C17.6439 207.157 20.4345 206.462 22.9753 205.585C27.9793 203.851 31.7684 200.185 35.7555 196.736C43.3769 190.135 45.4677 181.604 43.7509 171.585C42.4482 163.949 38.2503 152.45 29.3439 152.308C22.2807 152.193 18.2682 157.61 22.7144 163.927C24.9031 167.041 28.7631 171.003 32.4499 171.922C35.4391 172.662 40.5295 172.074 43.0442 170.168C50.2351 164.696 46.7948 151.554 45.096 144.27C42.6124 133.61 35.4092 125.299 29.7133 116.409C26.6025 111.554 23.6552 106.21 21.4056 100.849C18.7682 94.5493 18.8525 87.6345 19.1005 80.8736C19.605 67.1261 23.0211 53.838 31.4768 43.0308C35.4463 37.9567 40.1999 33.8571 46.1686 31.662C52.9812 29.1508 59.0627 30.0609 65.6958 32.6316C66.4281 32.9209 66.1518 30.556 65.3937 30.2579Z" fill="#D2CBB8"/>
<path d="M63.1372 31.1252C65.6372 38.8601 73.6575 42.685 80.6437 44.4348C85.6654 45.6882 96.6913 48.0862 99.9547 41.9833C100.273 41.3874 99.9194 40.313 99.4288 39.9343C98.5932 39.2757 97.7829 39.2033 96.8185 38.8518C94.9315 38.1663 93.1573 37.0293 91.4166 35.9921C87.5832 33.6998 83.7756 31.3446 79.8384 29.2247C77.1507 27.7809 74.0667 26.87 71.0347 26.8892C68.9761 26.8985 64.6176 26.9268 63.2572 28.9045C62.7922 29.581 63.6973 31.7655 64.145 31.1153C65.6776 28.8855 71.7158 29.1543 73.7746 29.4521C77.2377 29.9656 80.115 31.7069 83.1469 33.3939C86.3259 35.1623 89.4102 37.0574 92.5461 38.8888C93.6401 39.5298 94.7426 40.2873 95.9056 40.7839C97.0519 41.2797 98.3611 41.3424 99.3778 42.1454C99.2048 41.4594 99.0242 40.7735 98.8512 40.0972C96.1394 45.1709 86.2076 43.3772 82.1502 42.4842C79.0147 41.7903 75.8624 40.9695 72.9675 39.5082C69.7886 37.9114 65.4724 34.5185 64.2741 30.8082C63.8258 29.4276 62.6803 29.7079 63.1372 31.1252Z" fill="#D2CBB8"/>
<path d="M62.2066 30.304C62.1273 23.4347 64.0889 14.6689 68.9025 9.65759C73.5095 4.85454 81.7861 1.73833 88.3246 2.50393C88.0917 1.79089 87.8671 1.07785 87.6349 0.364821C87.0062 2.09748 85.5852 3.5065 84.6123 5.04142C83.6651 6.53088 82.9939 8.14709 82.1415 9.69076C80.3851 12.8954 77.6213 16.0739 74.9258 18.4572C72.4284 20.6697 69.2421 23.2972 66.3138 24.8144C65.6077 25.1846 61.0086 27.5692 60.5261 26.9552C59.6989 25.9177 59.6823 28.2643 60.1562 28.86C61.216 30.1958 64.0409 28.4618 65.1863 27.9741C68.2093 26.6732 70.3881 24.6601 73.0233 22.6645C76.5543 20.0002 79.7661 17.0122 82.2978 13.2291C83.2617 11.7843 83.873 10.1418 84.7171 8.62443C85.9309 6.44015 87.8771 4.59785 88.7377 2.25095C88.9271 1.72685 88.7803 0.201783 88.048 0.111845C80.9758 -0.716622 71.9413 2.65266 67.2397 8.32278C62.7363 13.74 60.8608 22.3694 60.9402 29.3655C60.9318 30.2677 62.2243 31.9017 62.2066 30.304Z" fill="#D2CBB8"/>
<path d="M62.1716 28.0106C62.1026 28.029 62.0337 28.0473 61.9648 28.0649C61.2069 28.2637 61.8017 29.8437 62.086 30.2042C63.5939 32.1444 66.6778 32.974 68.754 34.1109C71.3643 35.5364 73.7505 36.2672 76.6966 36.4738C77.6177 36.5365 77.1698 34.1453 76.4117 34.1C73.5775 33.9022 71.355 33.2798 68.7964 31.8998C67.0476 30.9526 63.7312 29.9421 62.4473 28.2993C62.4906 29.0124 62.5252 29.7255 62.5684 30.4385C62.6373 30.421 62.7062 30.4026 62.7751 30.385C63.5676 30.1862 62.9726 27.803 62.1716 28.0106Z" fill="#D2CBB8"/>
<path d="M61.5343 28.3366C61.5601 28.3812 61.5947 28.4267 61.6205 28.4713C61.81 28.7696 62.06 29.0495 62.4044 28.8412C64.5574 27.4871 66.3487 25.7804 67.7693 23.6049C68.5098 22.4672 69.1641 21.257 69.6978 19.9934C70.352 18.441 70.5496 16.6175 71.4967 15.227C71.9617 14.5409 71.0481 12.366 70.609 13.0154C69.1367 15.1917 68.7929 17.99 67.5014 20.3186C66.0206 22.9911 64.04 25.0496 61.5166 26.6304C61.7751 26.7564 62.0335 26.8736 62.3006 27.0003C62.2747 26.9548 62.2403 26.9102 62.2144 26.8647C61.3613 25.5201 61.0517 27.5781 61.5343 28.3366Z" fill="#D2CBB8"/>
<path d="M31.1398 39.4829C27.4087 34.718 24.8232 29.0227 25.8035 22.6588C26.4913 18.2269 28.3418 12.5934 31.0197 8.98175C30.6664 8.5583 30.3045 8.13404 29.9512 7.71856C30.2102 9.70463 30.1072 11.3837 30.7107 13.2787C31.6159 16.0862 33.0378 18.6758 33.831 21.5375C35.6761 28.1894 33.9204 33.6514 31.0105 39.4925C30.6662 40.1786 31.6229 42.3623 32.105 41.3874C34.7049 36.1518 36.3402 31.6558 35.8046 25.617C35.6059 23.3334 34.9851 21.1488 34.2352 19.0009C32.9336 15.2459 31.7181 12.0597 31.1917 8.04288C31.1572 7.7996 30.5968 6.12948 30.1233 6.77969C22.2791 17.3705 22.9116 31.3706 30.7612 41.3878C31.5884 42.4349 31.6136 40.0786 31.1398 39.4829Z" fill="#D2CBB8"/>
<path d="M31.5967 40.9003C31.5098 38.4364 30.8374 36.0803 30.7162 33.6164C30.5603 30.2943 30.6541 27.1077 31.2562 23.8491C31.3938 23.0905 30.2735 21.0512 30.0241 22.3961C29.465 25.4114 29.3451 28.137 29.389 31.2246C29.4243 34.1943 30.2089 37.0377 30.313 39.9801C30.3391 40.8559 31.6574 42.4892 31.5967 40.9003Z" fill="#D2CBB8"/>
<path d="M24.3658 57.0242C27.157 58.3954 29.466 60.3626 32.4637 61.3094C35.1428 62.1574 38.0285 62.5626 40.8107 62.7063C45.5655 62.9491 50.4145 61.4131 55.057 60.4818C55.9355 60.3013 55.1254 58.325 54.6084 58.1082C48.182 55.3748 42.4523 49.3198 35.2082 49.1406C30.8756 49.0333 28.3779 50.0813 24.5798 52.0413C23.0813 52.809 21.8238 53.134 21.7295 55.0572C21.6867 55.9593 22.9447 57.5838 23.0132 55.9773C23.0646 54.9212 27.991 52.7264 28.9211 52.3289C31.8667 51.0646 36.2338 51.1624 39.2316 52.1818C44.8482 54.0938 49.4317 58.1638 54.8847 60.4819C54.738 59.6875 54.5828 58.8939 54.4361 58.1082C49.475 59.1026 44.3159 60.6833 39.2423 60.2332C36.6496 60.0082 33.9879 59.5941 31.5242 58.7102C28.7503 57.7178 26.6395 55.9133 24.0637 54.6497C23.4089 54.3165 23.6421 56.6631 24.3658 57.0242Z" fill="#D2CBB8"/>
<path d="M23.3059 55.4166C28.6636 55.4064 33.7974 55.9922 39.0606 57.02C39.922 57.1913 39.551 54.7892 38.7758 54.645C33.4006 53.5997 28.1634 53.0323 22.6938 53.0425C21.996 53.0427 22.4273 55.4169 23.3059 55.4166Z" fill="#D2CBB8"/>
<path d="M18.419 78.0667C14.3281 80.1528 9.5296 77.4373 6.65182 74.269C4.48055 71.8782 3.45485 69.2782 2.45485 66.1828C2.08415 65.0183 0.86887 62.1479 1.97137 62.012C2.68628 61.9217 5.38288 63.9614 6.05483 64.3217C7.63997 65.1525 9.11312 66.0271 10.5605 67.1099C14.6356 70.1781 18.7277 72.9122 18.6949 78.7884C18.6865 79.6818 19.9703 81.3159 19.9785 79.7086C20.0116 74.6627 18.2879 70.9174 14.3765 67.8491C10.1377 64.5288 5.43377 60.9917 0.566509 58.8266C0.308069 58.7094 0.118671 59.0884 0.0928834 59.287C-0.448484 64.1344 1.99082 70.3714 4.73097 74.2065C7.7899 78.4843 13.7346 83.1226 19.0225 80.4315C19.8064 80.0429 19.0822 77.7235 18.419 78.0667Z" fill="#D2CBB8"/>
<path d="M19.6682 77.8221C17.5921 76.7035 15.8173 75.1151 13.8272 73.8434C12.9312 73.2749 12.0008 72.7966 11.1995 72.0741C10.4327 71.3883 9.86405 70.6036 8.95084 70.1165C7.986 69.611 8.23641 71.976 8.8998 72.3276C9.76988 72.7884 10.3214 73.5915 11.0537 74.2318C11.8894 74.963 12.8542 75.4589 13.776 76.0457C15.7661 77.3174 17.541 78.8971 19.6171 80.0244C20.5734 80.557 20.3316 78.1832 19.6682 77.8221Z" fill="#D2CBB8"/>
</g>
</g>
<defs>
<clipPath id="clip0_28_226">
<rect width="207.388" height="100.064" fill="white" transform="translate(0.0551758 207.415) rotate(-90.0152)"/>
</clipPath>
</defs>
</svg>
