<svg width="99" height="99" viewBox="0 0 99 99" fill="none" xmlns="http://www.w3.org/2000/svg">
<g opacity="0.4">
<path d="M61.1798 0.556827C32.5187 18.9687 42.5111 39.6216 51.0899 47.6465C45.6889 27.0828 53.7264 14.5017 58.4202 10.7816C46.967 34.2749 55.9222 56.8026 61.8315 65.1297C54.5368 50.546 63.7819 42.3572 67.9429 29.7663C71.2717 19.6935 64.8211 6.09632 61.1798 0.556827Z" fill="white"/>
<path d="M10.2227 53.5226C39.5828 36.2485 52.9214 53.5697 55.9207 64.3895C40.5248 51.1038 25.8317 52.8521 20.4097 55.387C46.1936 55.2185 61.647 72.4189 66.1507 81.0402C56.8428 68.6012 45.4132 73.2344 32.514 71.6029C22.1947 70.2977 13.3534 59.0056 10.2227 53.5226Z" fill="white"/>
</g>
</svg>
