<svg width="30" height="30" viewBox="0 0 30 30" fill="none" xmlns="http://www.w3.org/2000/svg">
<path d="M19.2501 12.35L13.5126 6.61251C13.2784 6.3797 12.9616 6.24902 12.6314 6.24902C12.3011 6.24902 11.9843 6.3797 11.7501 6.61251C11.633 6.72872 11.54 6.86697 11.4765 7.01929C11.413 7.17162 11.3804 7.335 11.3804 7.50001C11.3804 7.66503 11.413 7.82841 11.4765 7.98074C11.54 8.13306 11.633 8.27131 11.7501 8.38751L17.5001 14.1125C17.6173 14.2287 17.7103 14.367 17.7737 14.5193C17.8372 14.6716 17.8699 14.835 17.8699 15C17.8699 15.165 17.8372 15.3284 17.7737 15.4807C17.7103 15.6331 17.6173 15.7713 17.5001 15.8875L11.7501 21.6125C11.5147 21.8462 11.3818 22.1639 11.3807 22.4956C11.3795 22.8273 11.5101 23.1459 11.7439 23.3813C11.9776 23.6166 12.2952 23.7495 12.6269 23.7507C12.9587 23.7519 13.2772 23.6212 13.5126 23.3875L19.2501 17.65C19.9524 16.9469 20.3468 15.9938 20.3468 15C20.3468 14.0063 19.9524 13.0531 19.2501 12.35Z" fill="black"/>
</svg>
