<svg width="68" height="132" viewBox="0 0 68 132" fill="none" xmlns="http://www.w3.org/2000/svg">
<g clip-path="url(#clip0_52_173)">
<path d="M23.5663 19.2527C29.4139 17.1269 34.7699 17.0407 40.3366 20.0685C45.0076 22.6022 48.5549 27.0492 51.066 31.588C53.6942 36.3337 55.1986 41.6022 55.6786 46.9684C56.1468 52.1852 56.6093 58.1661 54.7713 63.1818C52.8103 68.5308 49.4095 73.5867 46.0437 78.1715C44.3462 80.4869 42.6019 82.785 41.1151 85.2441C39.1542 88.5017 38.1766 91.811 37.4391 95.4996C36.7425 98.9755 35.9406 103.405 38.7151 106.255C40.5941 108.191 45.2535 108.582 47.5422 107.381C49.9304 106.134 55.6259 101.291 51.347 99.1134C47.8583 97.3381 44.3403 98.9525 42.1336 101.762C39.6751 104.893 38.6859 109.323 38.7503 113.23C38.8205 117.51 40.7112 120.791 43.9833 123.52C46.8105 125.881 49.6202 128.375 53.2435 129.46C54.8474 129.943 56.6034 130.368 58.2775 130.472C60.0804 130.581 61.8013 129.989 63.61 130.115C64.1076 130.144 63.7856 131.667 63.1944 131.621C61.3857 131.494 59.6706 132.115 57.8619 131.977C56.0473 131.839 54.1508 131.397 52.424 130.839C49.0231 129.736 46.4476 127.404 43.7374 125.209C38.5571 121.009 37.1347 115.58 38.2995 109.202C39.1834 104.342 42.0341 97.0221 48.0866 96.9302C52.8864 96.8555 55.6142 100.303 52.5938 104.324C51.107 106.307 48.4846 108.829 45.9793 109.415C43.9482 109.886 40.4887 109.513 38.7795 108.3C33.8919 104.819 36.2274 96.4533 37.3805 91.8168C39.0663 85.0315 43.9599 79.74 47.829 74.0808C49.9421 70.9898 51.944 67.5885 53.4718 64.1758C55.263 60.1655 55.2044 55.7645 55.0347 51.4613C54.6893 42.7111 52.3655 34.2539 46.6174 27.3766C43.9189 24.1477 40.6878 21.5393 36.6313 20.1432C32.0012 18.546 27.8686 19.1263 23.3614 20.7637C22.8639 20.9476 23.0512 19.4423 23.5663 19.2527Z" fill="#405244"/>
<path d="M25.0999 19.8042C23.4024 24.728 17.9528 27.1641 13.2056 28.2787C9.79305 29.0773 2.30058 30.6055 0.0821077 26.7217C-0.134472 26.3425 0.105522 25.6588 0.439171 25.4175C1.00696 24.998 1.55719 24.9521 2.21278 24.728C3.49469 24.2914 4.70051 23.5674 5.88292 22.9067C8.48772 21.4474 11.075 19.9479 13.75 18.5977C15.5763 17.6784 17.6719 17.0982 19.7323 17.1096C21.1313 17.1154 24.0931 17.1326 25.018 18.3909C25.3341 18.8218 24.7195 20.2122 24.4151 19.7985C23.3732 18.3794 19.2699 18.5517 17.8709 18.7413C15.5178 19.0688 13.5627 20.1777 11.5023 21.2521C9.34233 22.3782 7.24678 23.5847 5.11611 24.751C4.37272 25.1589 3.62347 25.6415 2.83325 25.9575C2.05473 26.2735 1.165 26.3137 0.474291 26.8251C0.59136 26.3884 0.714285 25.9518 0.831354 25.5209C2.6752 28.7498 9.42428 27.6064 12.1813 27.0377C14.3119 26.5953 16.4543 26.0724 18.4211 25.1417C20.581 24.1247 23.5136 21.9645 24.3273 19.6031C24.6317 18.7241 25.4102 18.9022 25.0999 19.8042Z" fill="#405244"/>
<path d="M25.732 19.2814C25.7846 14.9092 24.45 9.33044 21.1779 6.14175C18.0463 3.08521 12.4211 1.10306 7.97831 1.59142C8.13636 1.13753 8.28855 0.683641 8.44659 0.229756C8.8739 1.33287 9.83972 2.22915 10.5012 3.20587C11.145 4.15385 11.6016 5.18227 12.1811 6.16473C13.3752 8.20434 15.2542 10.2267 17.0863 11.7435C18.7839 13.1511 20.9496 14.823 22.9398 15.7882C23.4198 16.0238 26.5456 17.5406 26.8734 17.1499C27.4353 16.4892 27.447 17.983 27.1251 18.3622C26.4051 19.2125 24.4852 18.1094 23.7066 17.7991C21.6521 16.9718 20.1711 15.6906 18.38 14.4208C15.98 12.726 13.7967 10.8242 12.0758 8.41692C11.4202 7.49766 11.0046 6.452 10.4309 5.48678C9.60558 4.0964 8.28269 2.92434 7.69734 1.43055C7.56857 1.09731 7.66808 0.12634 8.16562 0.0688869C12.9713 -0.459689 19.1117 1.68334 22.3077 5.29144C25.369 8.73867 26.6451 14.2312 26.5924 18.6839C26.5983 19.2584 25.7202 20.2984 25.732 19.2814Z" fill="#405244"/>
<path d="M25.7555 17.822C25.8023 17.8335 25.8492 17.845 25.896 17.8564C26.4111 17.9828 26.0072 18.9883 25.814 19.2181C24.7897 20.4534 22.6941 20.9819 21.2834 21.7058C19.5098 22.6136 17.8884 23.079 15.8865 23.2111C15.2602 23.2513 15.5646 21.7288 16.0797 21.7001C18.0055 21.5737 19.5157 21.1773 21.2542 20.2982C22.4424 19.695 24.696 19.0515 25.5682 18.0058C25.5389 18.4597 25.5155 18.9136 25.4862 19.3675C25.4394 19.356 25.3926 19.3445 25.3458 19.333C24.8072 19.2066 25.2111 17.6898 25.7555 17.822Z" fill="#405244"/>
<path d="M26.1887 18.0288C26.1711 18.0576 26.1477 18.0863 26.1302 18.115C26.0014 18.3046 25.8316 18.4827 25.5975 18.3506C24.1341 17.4888 22.9166 16.4029 21.9508 15.0183C21.4474 14.2943 21.0025 13.5245 20.6396 12.7201C20.1947 11.7319 20.0601 10.5713 19.4162 9.68655C19.1001 9.2499 19.7206 7.86527 20.0191 8.27894C21.0201 9.66357 21.2542 11.4446 22.1322 12.9269C23.139 14.6276 24.4853 15.9375 26.2004 16.943C26.0248 17.0234 25.8492 17.0981 25.6677 17.1785C25.6853 17.1498 25.7087 17.1211 25.7263 17.0923C26.3058 16.2363 26.5165 17.5462 26.1887 18.0288Z" fill="#405244"/>
<path d="M46.8455 25.1187C49.3801 22.0851 51.1361 18.4598 50.4688 14.4093C50.0005 11.5883 48.742 8.00322 46.9216 5.70507C47.1616 5.43503 47.4074 5.165 47.6474 4.90072C47.4718 6.1647 47.5421 7.23334 47.1323 8.43987C46.5177 10.2267 45.5519 11.8756 45.0134 13.6969C43.7607 17.9312 44.9548 21.4072 46.9333 25.1244C47.1674 25.5611 46.5177 26.9515 46.1899 26.331C44.4221 22.9987 43.31 20.1375 43.6729 16.2938C43.8075 14.8402 44.229 13.4498 44.7382 12.0824C45.6221 9.69236 46.4475 7.66424 46.8045 5.10755C46.8279 4.95243 47.2084 3.88954 47.5304 4.3032C52.8629 11.0425 52.4356 19.9536 47.103 26.331C46.5411 26.9974 46.5236 25.4979 46.8455 25.1187Z" fill="#405244"/>
<path d="M46.5354 26.0206C46.5939 24.4521 47.0505 22.9526 47.1325 21.3841C47.2378 19.2698 47.1734 17.2417 46.7637 15.1676C46.67 14.685 47.431 13.3865 47.6007 14.2426C47.9812 16.1615 48.0632 17.8966 48.0339 19.8616C48.0105 21.7518 47.4778 23.5616 47.4076 25.4346C47.39 25.9919 46.4944 27.0318 46.5354 26.0206Z" fill="#405244"/>
<path d="M51.4522 36.2819C49.5557 37.1552 47.987 38.4077 45.95 39.011C44.1295 39.551 42.1686 39.8096 40.2779 39.9015C37.0468 40.0566 33.7513 39.0799 30.5962 38.4881C29.9992 38.3732 30.5494 37.115 30.9006 36.9771C35.2673 35.2363 39.1599 31.3811 44.0827 31.2662C47.027 31.1973 48.7245 31.8637 51.3059 33.1105C52.3244 33.5988 53.179 33.8057 53.2434 35.0294C53.2727 35.604 52.4181 36.6381 52.3712 35.6155C52.3361 34.9432 48.9879 33.5471 48.3557 33.2943C46.3538 32.49 43.3861 32.5532 41.3491 33.2024C37.5326 34.4204 34.4186 37.0116 30.7133 38.4881C30.8128 37.9825 30.9182 37.477 31.0177 36.9771C34.3893 37.6091 37.8956 38.6145 41.3433 38.3273C43.1052 38.1836 44.9139 37.9193 46.588 37.3563C48.4728 36.7243 49.9069 35.5752 51.6571 34.7709C52.102 34.5583 51.9439 36.0521 51.4522 36.2819Z" fill="#405244"/>
<path d="M52.1722 35.2593C48.5314 35.2536 45.0427 35.627 41.4662 36.282C40.8808 36.3912 41.1325 34.8629 41.6594 34.771C45.3119 34.1045 48.8709 33.7426 52.5878 33.7483C53.062 33.7483 52.7693 35.2593 52.1722 35.2593Z" fill="#405244"/>
<path d="M55.4971 49.6745C58.2775 51.0017 61.5379 49.2723 63.4929 47.2557C64.968 45.7332 65.6646 44.0785 66.3436 42.1079C66.5953 41.3667 67.4206 39.5397 66.6714 39.4535C66.1855 39.396 64.3534 40.6945 63.8968 40.9243C62.8198 41.4529 61.8188 42.0102 60.8355 42.6996C58.0667 44.6531 55.2863 46.3939 55.3098 50.1341C55.3156 50.7029 54.4434 51.7429 54.4376 50.7202C54.4142 47.5085 55.5849 45.1242 58.2424 43.1708C61.1223 41.0565 64.3183 38.8043 67.6255 37.4254C67.8011 37.3507 67.9299 37.592 67.9474 37.7184C68.3162 40.8037 66.6597 44.7737 64.7983 47.2155C62.7203 49.9388 58.6814 52.8919 55.0873 51.1798C54.5547 50.9328 55.0463 49.4562 55.4971 49.6745Z" fill="#405244"/>
<path d="M54.6483 49.5193C56.059 48.8068 57.2648 47.7956 58.617 46.9855C59.2258 46.6236 59.8579 46.3191 60.4023 45.8595C60.9233 45.4228 61.3096 44.923 61.9301 44.6127C62.5857 44.291 62.4159 45.7963 61.9652 46.0203C61.374 46.3133 60.9994 46.8247 60.5018 47.2326C59.934 47.698 59.2784 48.014 58.6521 48.3874C57.3 49.1975 56.0941 50.203 54.6834 50.9211C54.0337 51.2601 54.1976 49.7491 54.6483 49.5193Z" fill="#405244"/>
</g>
<defs>
<clipPath id="clip0_52_173">
<rect width="132" height="68" fill="white" transform="matrix(4.37114e-08 -1 -1 -4.37114e-08 68 132)"/>
</clipPath>
</defs>
</svg>
