<svg width="68" height="138" viewBox="0 0 68 138" fill="none" xmlns="http://www.w3.org/2000/svg">
<g clip-path="url(#clip0_69_872)">
<path d="M23.5663 20.128C29.4139 17.9056 34.7699 17.8155 40.3366 20.9809C45.0076 23.6298 48.5549 28.2789 51.066 33.024C53.6942 37.9854 55.1986 43.4934 55.6786 49.1035C56.1468 54.5574 56.6093 60.8102 54.7713 66.0539C52.8103 71.646 49.4095 76.9317 46.0437 81.7249C44.3462 84.1456 42.6019 86.5482 41.1151 89.119C39.1542 92.5247 38.1766 95.9845 37.4391 99.8406C36.7425 103.475 35.9406 108.106 38.7151 111.085C40.5941 113.109 45.2535 113.518 47.5422 112.262C49.9304 110.959 55.6259 105.895 51.347 103.619C47.8583 101.763 44.3403 103.451 42.1336 106.388C39.6751 109.661 38.6859 114.292 38.7503 118.377C38.8205 122.852 40.7112 126.281 43.9833 129.134C46.8105 131.603 49.6202 134.21 53.2435 135.345C54.8474 135.85 56.6034 136.294 58.2775 136.402C60.0804 136.517 61.8013 135.898 63.61 136.03C64.1076 136.06 63.7856 137.652 63.1944 137.604C61.3857 137.472 59.6706 138.12 57.8619 137.976C56.0473 137.832 54.1508 137.369 52.424 136.787C49.0231 135.634 46.4476 133.195 43.7374 130.9C38.5571 126.51 37.1347 120.833 38.2995 114.166C39.1834 109.085 42.0341 101.432 48.0866 101.336C52.8864 101.258 55.6142 104.862 52.5938 109.067C51.107 111.139 48.4846 113.776 45.9793 114.388C43.9482 114.881 40.4887 114.491 38.7795 113.223C33.8919 109.583 36.2274 100.838 37.3805 95.9905C39.0663 88.8967 43.9599 83.3647 47.829 77.4483C49.9421 74.2168 51.944 70.6609 53.4718 67.093C55.263 62.9005 55.2044 58.2995 55.0347 53.8006C54.6893 44.6527 52.3655 35.811 46.6174 28.6212C43.9189 25.2456 40.6878 22.5186 36.6313 21.059C32.0012 19.3892 27.8686 19.9959 23.3614 21.7077C22.8639 21.8999 23.0512 20.3262 23.5663 20.128Z" fill="white"/>
<path d="M25.0999 20.7046C23.4024 25.8521 17.9528 28.3989 13.2056 29.5642C9.79305 30.3991 2.30058 31.9968 0.0821077 27.9364C-0.134472 27.54 0.105522 26.8252 0.439171 26.5729C1.00696 26.1345 1.55719 26.0864 2.21278 25.8521C3.49469 25.3956 4.70051 24.6388 5.88292 23.9481C8.48772 22.4224 11.075 20.8547 13.75 19.4432C15.5763 18.4821 17.6719 17.8755 19.7323 17.8875C21.1313 17.8935 24.0931 17.9115 25.018 19.2269C25.3341 19.6774 24.7195 21.131 24.4151 20.6986C23.3732 19.2149 19.2699 19.3951 17.8709 19.5933C15.5178 19.9357 13.5627 21.095 11.5023 22.2182C9.34233 23.3955 7.24678 24.6568 5.11611 25.8762C4.37272 26.3026 3.62347 26.8072 2.83325 27.1375C2.05473 27.4679 1.165 27.51 0.474291 28.0445C0.59136 27.588 0.714285 27.1315 0.831354 26.681C2.6752 30.0567 9.42428 28.8614 12.1813 28.2668C14.3119 27.8043 16.4543 27.2577 18.4211 26.2846C20.581 25.2215 23.5136 22.963 24.3273 20.4943C24.6317 19.5753 25.4102 19.7615 25.0999 20.7046Z" fill="white"/>
<path d="M25.732 20.1579C25.7846 15.5869 24.45 9.7546 21.1779 6.42098C18.0463 3.2255 12.4211 1.15325 7.97831 1.6638C8.13636 1.18929 8.28855 0.714767 8.44659 0.240251C8.8739 1.3935 9.83972 2.33053 10.5012 3.35164C11.145 4.34272 11.6016 5.41788 12.1811 6.445C13.3752 8.57731 15.2542 10.6916 17.0863 12.2773C18.7839 13.7489 20.9496 15.4968 22.9398 16.5059C23.4198 16.7522 26.5456 18.3379 26.8734 17.9295C27.4353 17.2387 27.447 18.8004 27.1251 19.1969C26.4051 20.0858 24.4852 18.9326 23.7066 18.6082C21.6521 17.7433 20.1711 16.4038 18.38 15.0764C15.98 13.3045 13.7967 11.3163 12.0758 8.79956C11.4202 7.83851 11.0046 6.74533 10.4309 5.73623C9.60558 4.28265 8.28269 3.05732 7.69734 1.49562C7.56857 1.14724 7.66808 0.132135 8.16562 0.0720683C12.9713 -0.48053 19.1117 1.75991 22.3077 5.53201C25.369 9.13593 26.6451 14.8782 26.5924 19.5332C26.5983 20.1339 25.7202 21.2211 25.732 20.1579Z" fill="white"/>
<path d="M25.7555 18.6323C25.8023 18.6443 25.8492 18.6563 25.896 18.6683C26.4111 18.8005 26.0072 19.8516 25.814 20.0919C24.7897 21.3833 22.6941 21.9359 21.2834 22.6927C19.5098 23.6417 17.8884 24.1282 15.8865 24.2664C15.2602 24.3084 15.5646 22.7167 16.0797 22.6867C18.0055 22.5545 19.5157 22.1401 21.2542 21.2211C22.4424 20.5904 24.696 19.9177 25.5682 18.8245C25.5389 19.299 25.5155 19.7735 25.4862 20.248C25.4394 20.236 25.3926 20.224 25.3458 20.212C24.8072 20.0798 25.2111 18.4941 25.7555 18.6323Z" fill="white"/>
<path d="M26.1887 18.8485C26.1711 18.8785 26.1477 18.9086 26.1302 18.9386C26.0014 19.1368 25.8316 19.323 25.5975 19.1849C24.1341 18.2839 22.9166 17.1487 21.9508 15.7011C21.4474 14.9443 21.0025 14.1394 20.6396 13.2985C20.1947 12.2653 20.0601 11.052 19.4162 10.127C19.1001 9.67052 19.7206 8.22295 20.0191 8.65542C21.0201 10.103 21.2542 11.965 22.1322 13.5147C23.139 15.2926 24.4853 16.6621 26.2004 17.7133C26.0248 17.7974 25.8492 17.8754 25.6677 17.9595C25.6853 17.9295 25.7087 17.8995 25.7263 17.8694C26.3058 16.9745 26.5165 18.344 26.1887 18.8485Z" fill="white"/>
<path d="M46.8455 26.2606C49.3801 23.0891 51.1361 19.299 50.4688 15.0644C50.0005 12.1152 48.742 8.36713 46.9216 5.96452C47.1616 5.68221 47.4074 5.3999 47.6474 5.1236C47.4718 6.44504 47.5421 7.56226 47.1323 8.82363C46.5177 10.6917 45.5519 12.4155 45.0134 14.3196C43.7607 18.7464 44.9548 22.3804 46.9333 26.2666C47.1674 26.7231 46.5177 28.1767 46.1899 27.528C44.4221 24.0442 43.31 21.0529 43.6729 17.0346C43.8075 15.5149 44.229 14.0613 44.7382 12.6318C45.6221 10.133 46.4475 8.01274 46.8045 5.33984C46.8279 5.17766 47.2084 4.06646 47.5304 4.49893C52.8629 11.5446 52.4356 20.8607 47.103 27.528C46.5411 28.2247 46.5236 26.657 46.8455 26.2606Z" fill="white"/>
<path d="M46.5354 27.2036C46.5939 25.5638 47.0505 23.9961 47.1325 22.3563C47.2378 20.1459 47.1734 18.0256 46.7637 15.8572C46.67 15.3527 47.431 13.9952 47.6007 14.8902C47.9812 16.8963 48.0632 18.7103 48.0339 20.7646C48.0105 22.7407 47.4778 24.6328 47.4076 26.5909C47.39 27.1735 46.4944 28.2607 46.5354 27.2036Z" fill="white"/>
<path d="M51.4522 37.9313C49.5557 38.8443 47.987 40.1537 45.95 40.7844C44.1295 41.349 42.1686 41.6193 40.2779 41.7154C37.0468 41.8776 33.7513 40.8565 30.5962 40.2378C29.9992 40.1177 30.5494 38.8022 30.9006 38.6581C35.2673 36.8381 39.1599 32.8077 44.0827 32.6876C47.027 32.6155 48.7245 33.3123 51.3059 34.6157C52.3244 35.1262 53.179 35.3425 53.2434 36.6219C53.2727 37.2225 52.4181 38.3037 52.3712 37.2345C52.3361 36.5318 48.9879 35.0722 48.3557 34.8079C46.3538 33.967 43.3861 34.033 41.3491 34.7118C37.5326 35.9852 34.4186 38.6941 30.7133 40.2378C30.8128 39.7092 30.9182 39.1806 31.0177 38.6581C34.3893 39.3188 37.8956 40.3699 41.3433 40.0696C43.1052 39.9194 44.9139 39.6431 46.588 39.0545C48.4728 38.3938 49.9069 37.1925 51.6571 36.3516C52.102 36.1293 51.9439 37.691 51.4522 37.9313Z" fill="white"/>
<path d="M52.1722 36.8621C48.5314 36.8561 45.0427 37.2465 41.4662 37.9312C40.8808 38.0454 41.1325 36.4476 41.6594 36.3515C45.3119 35.6548 48.8709 35.2764 52.5878 35.2824C53.062 35.2824 52.7693 36.8621 52.1722 36.8621Z" fill="white"/>
<path d="M55.4971 51.9325C58.2775 53.32 61.5379 51.512 63.4929 49.4037C64.968 47.812 65.6646 46.0821 66.3436 44.0219C66.5953 43.247 67.4206 41.337 66.6714 41.2469C66.1855 41.1868 64.3534 42.5443 63.8968 42.7845C62.8198 43.3371 61.8188 43.9198 60.8355 44.6406C58.0667 46.6828 55.2863 48.5027 55.3098 52.413C55.3156 53.0076 54.4434 54.0948 54.4376 53.0257C54.4142 49.668 55.5849 47.1753 58.2424 45.1331C61.1223 42.9227 64.3183 40.5681 67.6255 39.1266C67.8011 39.0485 67.9299 39.3007 67.9474 39.4329C68.3162 42.6584 66.6597 46.8089 64.7983 49.3617C62.7203 52.2088 58.6814 55.2961 55.0873 53.5062C54.5547 53.2479 55.0463 51.7042 55.4971 51.9325Z" fill="white"/>
<path d="M54.6483 51.7703C56.059 51.0254 57.2648 49.9683 58.617 49.1214C59.2258 48.743 59.8579 48.4246 60.4023 47.9441C60.9233 47.4876 61.3096 46.965 61.9301 46.6407C62.5857 46.3043 62.4159 47.878 61.9652 48.1123C61.374 48.4186 60.9994 48.9532 60.5018 49.3797C59.934 49.8662 59.2784 50.1965 58.6521 50.587C57.3 51.4339 56.0941 52.485 54.6834 53.2358C54.0337 53.5902 54.1976 52.0105 54.6483 51.7703Z" fill="white"/>
</g>
<defs>
<clipPath id="clip0_69_872">
<rect width="138" height="68" fill="white" transform="matrix(4.37114e-08 -1 -1 -4.37114e-08 68 138)"/>
</clipPath>
</defs>
</svg>
