<svg width="18" height="18" viewBox="0 0 18 18" fill="none" xmlns="http://www.w3.org/2000/svg">
<g clip-path="url(#clip0_15_288)">
<path d="M15.75 4.5H13.5C13.5 2.01825 11.4818 0 9 0C6.51825 0 4.5 2.01825 4.5 4.5H2.25C1.0095 4.5 0 5.5095 0 6.75V14.625C0 16.4858 1.51425 18 3.375 18H12.375C12.582 18 12.75 17.832 12.75 17.625C12.75 17.418 12.582 17.25 12.375 17.25H3.375C1.9275 17.25 0.75 16.0725 0.75 14.625V6.75C0.75 5.92275 1.42275 5.25 2.25 5.25H4.5V7.875C4.5 8.082 4.668 8.25 4.875 8.25C5.082 8.25 5.25 8.082 5.25 7.875V5.25H12.75V7.875C12.75 8.082 12.918 8.25 13.125 8.25C13.332 8.25 13.5 8.082 13.5 7.875V5.25H15.75C16.5772 5.25 17.25 5.92275 17.25 6.75V12.375C17.25 12.582 17.418 12.75 17.625 12.75C17.832 12.75 18 12.582 18 12.375V6.75C18 5.5095 16.9905 4.5 15.75 4.5ZM5.25 4.5C5.25 2.43225 6.93225 0.75 9 0.75C11.0677 0.75 12.75 2.43225 12.75 4.5H5.25ZM18 14.625C18 14.832 17.832 15 17.625 15H15V17.625C15 17.832 14.832 18 14.625 18C14.418 18 14.25 17.832 14.25 17.625V15H11.625C11.418 15 11.25 14.832 11.25 14.625C11.25 14.418 11.418 14.25 11.625 14.25H14.25V11.625C14.25 11.418 14.418 11.25 14.625 11.25C14.832 11.25 15 11.418 15 11.625V14.25H17.625C17.832 14.25 18 14.418 18 14.625Z" fill="white"/>
</g>
<defs>
<clipPath id="clip0_15_288">
<rect width="18" height="18" fill="white"/>
</clipPath>
</defs>
</svg>
